<?xml version="1.0" encoding="utf-8"?>
<!-- Generator: Adobe Illustrator 27.9.0, SVG Export Plug-In . SVG Version: 6.00 Build 0)  -->
<svg version="1.1" id="Ebene_1" xmlns="http://www.w3.org/2000/svg" xmlns:xlink="http://www.w3.org/1999/xlink" x="0px" y="0px"
	 viewBox="0 0 780.9 276.8" style="enable-background:new 0 0 780.9 276.8;" xml:space="preserve">
<style type="text/css">
	.st0{fill:#FFFFFF;}
	.st1{fill:#1D1D1B;}
	.st2{fill:#112358;}
</style>
<g>
	<path class="st2" d="M3.8,197.9v-63.8c0-5.9,4.7-10.6,10.5-10.6h3.4c0.7,0,1.3,0.6,1.3,1.3v73.1H3.8z"/>
	<path class="st2" d="M45,164.6l0,33.3H30.9v-49.7c0-0.7,0.6-1.3,1.3-1.3h11.5c0.7,0,1.3,0.6,1.3,1.3v3.6c0,1.2,1.4,1.7,2.2,0.9
		c4-4.4,9.7-7.2,15.6-7.2c11.2,0,18,7.6,18,19.3v33H66.7v-29.2c0-6.1-3-10.5-9.8-10.5c-5.1,0-9.2,2.8-11.6,5.6
		C45.1,164,45,164.3,45,164.6z"/>
	<path class="st2" d="M150.3,199.4c-16.3,0-27.8-11.7-27.8-27.1c0-15.1,11.5-26.8,27.8-26.8s27.8,11.7,27.8,26.8
		C178.2,187.6,166.6,199.4,150.3,199.4z M150.3,186.8c8.5,0,14.6-6.2,14.6-14.5c0-7.9-6.1-14.2-14.6-14.2c-8.5,0-14.6,6.3-14.6,14.2
		C135.7,180.5,141.8,186.8,150.3,186.8z"/>
	<path class="st2" d="M201.2,167l0,30.8h-14.1v-49.7c0-0.7,0.6-1.3,1.3-1.3h11.5c0.7,0,1.3,0.6,1.3,1.3v3.2c0,1.2,1.4,1.7,2.2,0.8
		c3.3-3.7,7.7-6.2,12.8-6.6c0.7-0.1,1.4,0.5,1.4,1.3l0,14.3c0,0,0,0,0,0c-6.6,0-12.8,2.5-15.9,4.8
		C201.4,166.2,201.2,166.6,201.2,167z"/>
	<path class="st2" d="M239.4,164.6l0,33.3h-14.1v-49.7c0-0.7,0.6-1.3,1.3-1.3h11.5c0.7,0,1.3,0.6,1.3,1.3v3.6c0,1.2,1.4,1.7,2.2,0.9
		c4-4.4,9.6-7.2,15.6-7.2c7.2,0,12.6,3.3,15.5,8.8c0.4,0.8,1.6,0.9,2.1,0.2c4.1-5.5,10.7-9,17.7-9c11,0,17.8,7.6,17.8,19.3v33h-14
		v-29.2c0-6.1-3.1-10.5-9.8-10.5c-4.7,0-8.6,2.4-11.1,5c-0.2,0.2-0.4,0.6-0.4,0.9l0,0.8v33h-14.1v-29.2c0-6.1-3.1-10.5-9.8-10.5
		c-5,0-9.1,2.7-11.5,5.6C239.5,164,239.4,164.3,239.4,164.6z"/>
	<path class="st2" d="M359.3,193.3c0-1.2-1.5-1.7-2.2-0.8c-3.8,4.4-8.9,6.9-14.7,6.9c-13.1,0-23.4-11.5-23.4-27.1
		c0-15.3,10.3-26.8,23.4-26.8c5.8,0,10.9,2.5,14.7,6.9c0.8,0.9,2.2,0.3,2.2-0.8v-3.4c0-0.7,0.6-1.3,1.3-1.3h11.1
		c0.7,0,1.3,0.6,1.3,1.3v49.7h-13.7V193.3z M345.8,186.6c6,0,11-3.7,13.4-8.1c0.1-0.2,0.2-0.4,0.2-0.6l0-10.8c0-0.2-0.1-0.4-0.2-0.6
		c-2.5-4.4-7.4-8.1-13.4-8.1c-7.2,0-13,5.8-13,14.1C332.8,180.7,338.6,186.6,345.8,186.6z"/>
	<path class="st2" d="M402.3,161.2v36.7h-14.1v-36.7c0-1.7-1.4-3.1-3.1-3.1h-2.6c-1.7,0-3.1-1.4-3.1-3.1v-5c0-1.7,1.4-3.1,3.1-3.1
		h2.6c1.7,0,3.1-1.4,3.1-3.1v-9.9c0-0.7,0.6-1.3,1.3-1.3H401c0.7,0,1.3,0.6,1.3,1.3v9.9c0,1.7,1.4,3.1,3.1,3.1h2.7
		c1.7,0,3.1,1.4,3.1,3.1v5c0,1.7-1.4,3.1-3.1,3.1h-2.7C403.7,158.1,402.3,159.5,402.3,161.2z"/>
	<path class="st2" d="M417.8,136.8v-12c0-0.7,0.6-1.3,1.3-1.3h11.5c0.7,0,1.3,0.6,1.3,1.3v12c0,0.7-0.6,1.3-1.3,1.3h-11.5
		C418.4,138,417.8,137.5,417.8,136.8z M417.8,197.9v-49.7c0-0.7,0.6-1.3,1.3-1.3h11.5c0.7,0,1.3,0.6,1.3,1.3v49.7H417.8z"/>
	<path class="st2" d="M479.8,199.4c-22.5,0-38.9-16.8-38.9-38.8c0-21.9,16.3-38.5,38.9-38.5c18.3,0,33.1,11.4,37.2,28.6
		c0.2,0.8-0.4,1.6-1.2,1.6l-14,0c0,0,0,0,0,0c-3.3-9.3-11.1-15.8-22-15.8c-13.8,0-23.4,10.3-23.4,24.3c0,13.8,9.6,24.1,23.4,24.1
		c10.8,0,18.7-6.3,21.9-15.6c0.2-0.5,0.7-0.9,1.2-0.9l12.9,0c0.8,0,1.4,0.8,1.2,1.6C512.9,187.7,498.4,199.4,479.8,199.4z"/>
	<path class="st2" d="M561.1,193.1c0-1.2-1.4-1.7-2.2-0.9c-4,4.4-9.6,7.2-15.5,7.2c-11.1,0-17.8-7.7-17.8-19.4v-31.8
		c0-0.7,0.6-1.3,1.3-1.3h11.4c0.7,0,1.3,0.6,1.3,1.3V176c0,6.2,3,10.5,9.7,10.5c5,0,9.1-2.7,11.5-5.5c0.2-0.2,0.3-0.5,0.3-0.8
		l0-32.1c0-0.7,0.6-1.3,1.3-1.3h11.5c0.7,0,1.3,0.6,1.3,1.3v49.7h-14.1V193.1z"/>
	<path class="st2" d="M599.1,197.1v12.2c0,4.6-3.7,8.4-8.3,8.4h-4.1c-0.7,0-1.3-0.6-1.3-1.3v-69.6h13.7v4.8c0,1.2,1.5,1.7,2.2,0.8
		c3.8-4.4,8.9-7,14.7-7c13.1,0,23.5,11.5,23.5,27c0,17.1-12.9,29.4-28,26.4c-2.9-0.6-5.5-2.2-7.8-4.1
		C601.9,193.2,598.5,193.9,599.1,197.1z M599.1,167.2l0,10.4c0,0.2,0,0.4,0.1,0.6c2.4,4.6,7.5,8.4,13.4,8.4
		c7.3,0,13.1-5.9,13.1-14.1c0-8.3-5.8-14.3-13.1-14.3c-6,0-10.9,3.8-13.4,8.3C599.2,166.7,599.1,166.9,599.1,167.2z"/>
</g>
<path class="st2" d="M95.5,202.3v-41.1c0-1.7-1.4-3.1-3.1-3.1h-2.6c-1.7,0-3.1-1.4-3.1-3.1v-5c0-1.7,1.4-3.1,3.1-3.1h2.6
	c1.7,0,3.1-1.4,3.1-3.1v-5.4c0-9.1,5.4-14.9,16.9-14.9h5.2c0.7,0,1.3,0.6,1.3,1.3v8.4c0,0.7-0.6,1.3-1.3,1.3h-3.8
	c-2.7,0-4.2,1.4-4.2,4.4v4.9c0,1.7,1.4,3.1,3.1,3.1h3.2c1.7,0,3.1,1.4,3.1,3.1v5c0,1.7-1.4,3.1-3.1,3.1h-3.2c-1.7,0-3.1,1.4-3.1,3.1
	l0,47.8c0,4.8-3.8,8.6-8.6,8.6h-4.2c-0.7,0-1.3-0.6-1.3-1.3L95.5,202.3z"/>
<path class="st2" d="M687.3,23.2c-17.9,0-32.5,14.3-32.5,31.8s14.6,31.8,32.5,31.8s32.5-14.3,32.5-31.8S705.3,23.2,687.3,23.2
	 M687.3,106.5c-29.1,0-52.7-23.1-52.7-51.6s23.6-51.6,52.7-51.6C716.4,3.4,740,26.5,740,55S716.4,106.5,687.3,106.5"/>
<path class="st2" d="M677.3,218.3l-14.7-13.6c9.3-9.6,14.4-22.1,14.4-35.4c0-24.5-17.5-45-41-50.2c-6.8-1.5-11.6-7.4-11.6-14.2v-6.8
	c40.1,0,72.8,31.9,72.8,71.2C697.2,187.7,690.1,205.1,677.3,218.3"/>
<path class="st2" d="M752.3,261.8l-0.2-0.2c-8.5-7.6-50.6-48.5-47.5-101.6c2.2-36.7,24.9-70.8,67.5-101.2l0.9,1.3
	c6,8,4.5,19.1-3.2,25.6c-28.4,23.7-43.6,49-45.1,75.5c-2.6,44.3,41.8,86.7,41.9,86.8l-14.8,13.5
	C751.9,261.4,752.1,261.6,752.3,261.8"/>
<path class="st2" d="M133.1,220.3c0.9,0.3,1.7,0.9,2.5,1.6l-1,1.1c-0.7-0.6-1.4-1.1-2.1-1.3c-0.7-0.3-1.5-0.4-2.4-0.4
	c-1.2,0-2.2,0.3-2.9,0.9c-0.7,0.6-1.1,1.4-1.1,2.4c0,0.7,0.1,1.2,0.4,1.7c0.3,0.4,0.7,0.8,1.4,1.2c0.6,0.3,1.5,0.7,2.7,1.1
	c1.3,0.4,2.3,0.8,3.1,1.3c0.8,0.4,1.4,1,1.8,1.7c0.4,0.7,0.6,1.6,0.6,2.7c0,1.1-0.3,2-0.8,2.9c-0.5,0.8-1.3,1.5-2.2,2
	c-1,0.5-2.1,0.7-3.4,0.7c-2.4,0-4.5-0.8-6.2-2.4l1-1.1c0.8,0.7,1.6,1.2,2.4,1.5c0.8,0.3,1.7,0.5,2.8,0.5c1.4,0,2.5-0.4,3.4-1.1
	c0.9-0.7,1.3-1.7,1.3-3c0-0.8-0.1-1.4-0.4-1.9c-0.3-0.5-0.8-0.9-1.4-1.3c-0.6-0.4-1.6-0.7-2.7-1.1c-2-0.6-3.4-1.3-4.2-2.1
	c-0.8-0.8-1.3-1.8-1.3-3.2c0-0.9,0.2-1.7,0.7-2.4c0.5-0.7,1.1-1.3,2-1.7c0.9-0.4,1.8-0.6,2.9-0.6C131.2,219.8,132.2,220,133.1,220.3
	"/>
<path class="st2" d="M147.6,238.7c-0.9,0.6-2,0.9-3.1,0.9c-1.1,0-2-0.3-2.6-1c-0.6-0.7-1-1.6-1-2.9V226h-2.5v-1.3h2.5v-3.5l1.6-0.2
	v3.7h3.8l-0.2,1.3h-3.6v9.7c0,0.9,0.2,1.5,0.5,1.9c0.4,0.4,0.9,0.6,1.6,0.6c0.7,0,1.5-0.2,2.2-0.6L147.6,238.7z"/>
<path class="st2" d="M161.1,239.3h-1.4l-0.1-2.6c-1.2,1.9-2.8,2.9-4.8,2.9c-1.3,0-2.4-0.4-3.1-1.2c-0.7-0.8-1.1-1.9-1.1-3.3v-10.5
	h1.6V235c0,1.1,0.2,2,0.7,2.5c0.5,0.5,1.2,0.8,2.2,0.8c1.7,0,3.1-1,4.3-3v-10.6h1.6V239.3z"/>
<path class="st2" d="M174.4,237.6c0.6-0.4,1.2-1.1,1.8-2v-7.7c-1.1-1.5-2.3-2.2-3.9-2.2c-1.3,0-2.4,0.6-3.2,1.7S168,230,168,232
	c0,2,0.4,3.6,1.1,4.6c0.7,1.1,1.7,1.6,3,1.6C173,238.3,173.8,238.1,174.4,237.6 M177.8,218.7v20.6h-1.4l-0.2-2.2
	c-1,1.7-2.5,2.6-4.4,2.6c-1.7,0-3.1-0.7-4-2c-1-1.4-1.5-3.2-1.5-5.5c0-1.5,0.2-2.9,0.7-4c0.5-1.2,1.1-2.1,2-2.7c0.9-0.7,1.9-1,3.1-1
	c1.7,0,3,0.7,4.1,2v-7.9L177.8,218.7z"/>
<path class="st2" d="M185.7,239.3h-1.6v-14.7h1.6V239.3z M185.8,218.5c0.2,0.2,0.3,0.5,0.3,0.8c0,0.3-0.1,0.6-0.3,0.8
	s-0.5,0.3-0.9,0.3c-0.4,0-0.6-0.1-0.9-0.3c-0.2-0.2-0.3-0.5-0.3-0.8c0-0.3,0.1-0.6,0.3-0.8c0.2-0.2,0.5-0.3,0.9-0.3
	C185.2,218.2,185.5,218.3,185.8,218.5"/>
<path class="st2" d="M200.8,230.9c0-1.6-0.3-2.9-1-3.9c-0.7-0.9-1.7-1.4-3.1-1.4c-1.2,0-2.2,0.5-3,1.4c-0.8,0.9-1.2,2.4-1.2,4.3h8.3
	V230.9z M202.3,232.6h-9.8c0.1,1.9,0.5,3.3,1.4,4.3c0.8,0.9,1.9,1.4,3.2,1.4c0.8,0,1.5-0.1,2-0.4c0.6-0.2,1.2-0.6,1.9-1.1l0.8,1
	c-0.7,0.6-1.5,1-2.3,1.3s-1.6,0.4-2.6,0.4c-2,0-3.5-0.7-4.6-2c-1.1-1.3-1.7-3.2-1.7-5.5c0-1.6,0.2-2.9,0.7-4.1
	c0.5-1.2,1.2-2.1,2.1-2.7c0.9-0.6,1.9-1,3.1-1c1.9,0,3.3,0.6,4.3,1.9c1,1.3,1.5,3,1.5,5.2C202.4,231.8,202.4,232.2,202.3,232.6"/>
<path class="st2" d="M214.5,224.5l-0.3,1.5c-0.4-0.1-0.8-0.2-1.3-0.2c-1,0-1.8,0.4-2.4,1.1c-0.6,0.7-1.1,1.8-1.5,3.4v9h-1.6v-14.7
	h1.4l0.1,3.3c0.4-1.2,0.9-2.1,1.6-2.7c0.7-0.6,1.5-0.9,2.5-0.9C213.6,224.3,214.1,224.4,214.5,224.5"/>
<path class="st2" d="M226.1,230.9c0-1.6-0.3-2.9-1-3.9c-0.7-0.9-1.7-1.4-3.1-1.4c-1.2,0-2.2,0.5-3,1.4c-0.8,0.9-1.2,2.4-1.2,4.3h8.3
	V230.9z M227.6,232.6h-9.8c0.1,1.9,0.5,3.3,1.4,4.3c0.8,0.9,1.9,1.4,3.2,1.4c0.8,0,1.5-0.1,2-0.4c0.6-0.2,1.2-0.6,1.9-1.1l0.8,1
	c-0.7,0.6-1.5,1-2.3,1.3c-0.8,0.3-1.6,0.4-2.6,0.4c-2,0-3.5-0.7-4.6-2c-1.1-1.3-1.7-3.2-1.7-5.5c0-1.6,0.2-2.9,0.7-4.1
	c0.5-1.2,1.2-2.1,2.1-2.7c0.9-0.6,1.9-1,3.1-1c1.9,0,3.3,0.6,4.3,1.9c1,1.3,1.5,3,1.5,5.2C227.7,231.8,227.7,232.2,227.6,232.6"/>
<path class="st2" d="M242.1,225.5c0.7,0.8,1.1,1.9,1.1,3.3v10.5h-1.6V229c0-1.2-0.2-2-0.7-2.6c-0.5-0.5-1.2-0.8-2.1-0.8
	c-0.9,0-1.8,0.3-2.5,0.8c-0.7,0.5-1.4,1.3-2.1,2.3v10.6h-1.6v-14.7h1.4l0.2,2.5c0.6-0.9,1.3-1.6,2.1-2.1c0.8-0.5,1.8-0.7,2.8-0.7
	C240.4,224.3,241.4,224.7,242.1,225.5"/>
<path class="st2" d="M256.4,237.6c0.6-0.4,1.2-1.1,1.8-2v-7.7c-1.1-1.5-2.3-2.2-3.9-2.2c-1.3,0-2.4,0.6-3.2,1.7S250,230,250,232
	c0,2,0.4,3.6,1.1,4.6c0.7,1.1,1.7,1.6,3,1.6C254.9,238.3,255.7,238.1,256.4,237.6 M259.8,218.7v20.6h-1.4l-0.2-2.2
	c-1,1.7-2.5,2.6-4.4,2.6c-1.7,0-3.1-0.7-4-2c-1-1.4-1.5-3.2-1.5-5.5c0-1.5,0.2-2.9,0.7-4c0.5-1.2,1.1-2.1,2-2.7c0.9-0.7,1.9-1,3.1-1
	c1.7,0,3,0.7,4.1,2v-7.9L259.8,218.7z"/>
<path class="st2" d="M274.8,230.9c0-1.6-0.3-2.9-1-3.9c-0.7-0.9-1.7-1.4-3.1-1.4c-1.2,0-2.2,0.5-3,1.4c-0.8,0.9-1.2,2.4-1.2,4.3h8.3
	V230.9z M276.4,232.6h-9.8c0.1,1.9,0.5,3.3,1.4,4.3c0.8,0.9,1.9,1.4,3.2,1.4c0.8,0,1.5-0.1,2-0.4c0.6-0.2,1.2-0.6,1.9-1.1l0.8,1
	c-0.7,0.6-1.5,1-2.3,1.3c-0.8,0.3-1.6,0.4-2.6,0.4c-2,0-3.5-0.7-4.6-2c-1.1-1.3-1.7-3.2-1.7-5.5c0-1.6,0.2-2.9,0.7-4.1
	c0.5-1.2,1.2-2.1,2.1-2.7c0.9-0.6,1.9-1,3.1-1c1.9,0,3.3,0.6,4.3,1.9c1,1.3,1.5,3,1.5,5.2C276.5,231.8,276.4,232.2,276.4,232.6"/>
<path class="st2" d="M290.9,225.5c0.7,0.8,1.1,1.9,1.1,3.3v10.5h-1.6V229c0-1.2-0.2-2-0.7-2.6c-0.5-0.5-1.2-0.8-2.1-0.8
	c-0.9,0-1.8,0.3-2.5,0.8c-0.7,0.5-1.4,1.3-2.1,2.3v10.6h-1.6v-14.7h1.4l0.2,2.5c0.6-0.9,1.3-1.6,2.1-2.1c0.8-0.5,1.8-0.7,2.8-0.7
	C289.2,224.3,290.2,224.7,290.9,225.5"/>
<polygon class="st2" points="314,224.6 310.4,239.3 308.2,239.3 305,226.2 301.6,239.3 299.5,239.3 295.8,224.6 297.5,224.6 
	300.6,238.1 304.1,224.6 305.9,224.6 309.3,238.1 312.4,224.6 "/>
<path class="st2" d="M326.8,230.9c0-1.6-0.3-2.9-1-3.9c-0.7-0.9-1.7-1.4-3.1-1.4c-1.2,0-2.2,0.5-3,1.4c-0.8,0.9-1.2,2.4-1.2,4.3h8.3
	V230.9z M328.4,232.6h-9.8c0.1,1.9,0.5,3.3,1.4,4.3c0.8,0.9,1.9,1.4,3.2,1.4c0.8,0,1.5-0.1,2-0.4c0.6-0.2,1.2-0.6,1.9-1.1l0.8,1
	c-0.7,0.6-1.5,1-2.3,1.3c-0.8,0.3-1.6,0.4-2.6,0.4c-2,0-3.5-0.7-4.6-2c-1.1-1.3-1.7-3.2-1.7-5.5c0-1.6,0.2-2.9,0.7-4.1
	c0.5-1.2,1.2-2.1,2.1-2.7c0.9-0.6,1.9-1,3.1-1c1.9,0,3.3,0.6,4.3,1.9c1,1.3,1.5,3,1.5,5.2C328.4,231.8,328.4,232.2,328.4,232.6"/>
<path class="st2" d="M340,238.7c-0.9,0.6-2,0.9-3.1,0.9s-2-0.3-2.6-1c-0.6-0.7-1-1.6-1-2.9V226h-2.5v-1.3h2.5v-3.5l1.6-0.2v3.7h3.8
	l-0.2,1.3H335v9.7c0,0.9,0.2,1.5,0.5,1.9c0.4,0.4,0.9,0.6,1.6,0.6c0.7,0,1.5-0.2,2.2-0.6L340,238.7z"/>
<path class="st2" d="M349.9,238.7c-0.9,0.6-2,0.9-3.1,0.9c-1.1,0-2-0.3-2.6-1c-0.6-0.7-1-1.6-1-2.9V226h-2.5v-1.3h2.5v-3.5l1.6-0.2
	v3.7h3.8l-0.2,1.3h-3.6v9.7c0,0.9,0.2,1.5,0.5,1.9c0.4,0.4,0.9,0.6,1.6,0.6c0.7,0,1.5-0.2,2.2-0.6L349.9,238.7z"/>
<path class="st2" d="M361.7,236.7c0.7-1.1,1.1-2.7,1.1-4.8c0-4.2-1.3-6.2-4-6.2c-0.9,0-1.6,0.2-2.3,0.7c-0.6,0.4-1.2,1.1-1.8,1.9
	v7.7c0.5,0.7,1,1.3,1.7,1.7c0.7,0.4,1.4,0.6,2.2,0.6C359.9,238.3,361,237.7,361.7,236.7 M363.1,226.3c0.9,1.3,1.4,3.2,1.4,5.6
	c0,2.4-0.5,4.3-1.5,5.6c-1,1.4-2.4,2.1-4.1,2.1c-0.9,0-1.7-0.2-2.4-0.6c-0.7-0.4-1.3-0.9-1.8-1.6l-0.2,1.8h-1.4v-20.6l1.6-0.2v8.2
	c1.2-1.6,2.6-2.4,4.4-2.4C360.8,224.3,362.2,225,363.1,226.3"/>
<path class="st2" d="M378.6,230.9c0-1.6-0.3-2.9-1-3.9c-0.7-0.9-1.7-1.4-3.1-1.4c-1.2,0-2.2,0.5-3,1.4c-0.8,0.9-1.2,2.4-1.2,4.3h8.3
	V230.9z M380.1,232.6h-9.8c0.1,1.9,0.5,3.3,1.4,4.3c0.8,0.9,1.9,1.4,3.2,1.4c0.8,0,1.5-0.1,2-0.4c0.6-0.2,1.2-0.6,1.9-1.1l0.8,1
	c-0.7,0.6-1.5,1-2.3,1.3s-1.6,0.4-2.6,0.4c-1.9,0-3.5-0.7-4.6-2c-1.1-1.3-1.7-3.2-1.7-5.5c0-1.6,0.2-2.9,0.7-4.1
	c0.5-1.2,1.2-2.1,2.1-2.7c0.9-0.6,1.9-1,3.1-1c1.9,0,3.3,0.6,4.3,1.9c1,1.3,1.5,3,1.5,5.2C380.2,231.8,380.1,232.2,380.1,232.6"/>
<polygon class="st2" points="401,224.6 397.4,239.3 395.2,239.3 392,226.2 388.7,239.3 386.5,239.3 382.8,224.6 384.5,224.6 
	387.6,238.1 391.1,224.6 392.9,224.6 396.3,238.1 399.4,224.6 "/>
<path class="st2" d="M413.8,230.9c0-1.6-0.3-2.9-1-3.9c-0.7-0.9-1.7-1.4-3.1-1.4c-1.2,0-2.2,0.5-3,1.4c-0.8,0.9-1.2,2.4-1.2,4.3h8.3
	V230.9z M415.4,232.6h-9.8c0.1,1.9,0.5,3.3,1.4,4.3c0.8,0.9,1.9,1.4,3.2,1.4c0.8,0,1.5-0.1,2-0.4c0.6-0.2,1.2-0.6,1.9-1.1l0.8,1
	c-0.7,0.6-1.5,1-2.3,1.3s-1.6,0.4-2.6,0.4c-1.9,0-3.5-0.7-4.6-2c-1.1-1.3-1.7-3.2-1.7-5.5c0-1.6,0.2-2.9,0.7-4.1
	c0.5-1.2,1.2-2.1,2.1-2.7c0.9-0.6,1.9-1,3.1-1c1.9,0,3.3,0.6,4.3,1.9c1,1.3,1.5,3,1.5,5.2C415.4,231.8,415.4,232.2,415.4,232.6"/>
<path class="st2" d="M427.5,224.5l-0.3,1.5c-0.4-0.1-0.8-0.2-1.3-0.2c-1,0-1.8,0.4-2.4,1.1c-0.6,0.7-1.1,1.8-1.5,3.4v9h-1.6v-14.7
	h1.4l0.1,3.3c0.4-1.2,0.9-2.1,1.6-2.7c0.7-0.6,1.5-0.9,2.5-0.9C426.6,224.3,427.1,224.4,427.5,224.5"/>
<path class="st2" d="M439.7,236.7c0.7-1.1,1.1-2.7,1.1-4.8c0-4.2-1.3-6.2-4-6.2c-0.9,0-1.6,0.2-2.3,0.7c-0.6,0.4-1.2,1.1-1.8,1.9
	v7.7c0.5,0.7,1,1.3,1.7,1.7c0.7,0.4,1.4,0.6,2.2,0.6C438,238.3,439,237.7,439.7,236.7 M441.1,226.3c0.9,1.3,1.4,3.2,1.4,5.6
	c0,2.4-0.5,4.3-1.5,5.6c-1,1.4-2.4,2.1-4.1,2.1c-0.9,0-1.7-0.2-2.4-0.6c-0.7-0.4-1.3-0.9-1.8-1.6l-0.2,1.8h-1.4v-20.6l1.6-0.2v8.2
	c1.2-1.6,2.6-2.4,4.4-2.4C438.9,224.3,440.2,225,441.1,226.3"/>
<path class="st2" d="M132.6,271.3c0.6-0.4,1.2-1.1,1.8-2v-7.7c-1.1-1.5-2.3-2.2-3.9-2.2c-1.3,0-2.4,0.6-3.2,1.7
	c-0.8,1.1-1.2,2.7-1.1,4.7c0,2,0.4,3.6,1.1,4.6c0.7,1.1,1.7,1.6,3,1.6C131.1,271.9,131.9,271.7,132.6,271.3 M136,252.3V273h-1.4
	l-0.2-2.2c-1,1.7-2.5,2.6-4.4,2.6c-1.7,0-3.1-0.7-4-2c-1-1.4-1.5-3.2-1.5-5.5c0-1.5,0.2-2.9,0.7-4c0.5-1.2,1.1-2.1,2-2.7
	c0.9-0.7,1.9-1,3.1-1c1.7,0,3,0.7,4.1,2v-7.9L136,252.3z"/>
<path class="st2" d="M151.1,264.6c0-1.6-0.3-2.9-1-3.9c-0.7-0.9-1.7-1.4-3.1-1.4c-1.2,0-2.2,0.5-3,1.4c-0.8,0.9-1.2,2.4-1.2,4.3h8.3
	V264.6z M152.6,266.3h-9.8c0.1,1.9,0.5,3.3,1.4,4.3c0.8,0.9,1.9,1.4,3.2,1.4c0.8,0,1.5-0.1,2-0.4c0.6-0.2,1.2-0.6,1.9-1.1l0.8,1
	c-0.7,0.6-1.5,1-2.3,1.3c-0.8,0.3-1.6,0.4-2.6,0.4c-2,0-3.5-0.7-4.6-2c-1.1-1.3-1.7-3.2-1.7-5.5c0-1.6,0.2-2.9,0.7-4.1
	c0.5-1.2,1.2-2.1,2.1-2.7c0.9-0.6,1.9-1,3.1-1c1.9,0,3.3,0.6,4.3,1.9c1,1.3,1.5,3,1.5,5.2C152.7,265.5,152.6,265.9,152.6,266.3"/>
<path class="st2" d="M164.7,258.2l-0.3,1.5c-0.4-0.1-0.8-0.2-1.3-0.2c-1,0-1.8,0.4-2.4,1.1c-0.6,0.7-1.1,1.8-1.5,3.4v9h-1.6v-14.7
	h1.4l0.1,3.3c0.4-1.2,0.9-2.1,1.6-2.7c0.7-0.6,1.5-0.9,2.5-0.9C163.8,258,164.3,258.1,164.7,258.2"/>
<path class="st2" d="M186.2,253.9c0.8,0.3,1.6,0.8,2.4,1.4l-1,1.1c-0.7-0.5-1.4-0.9-2-1.2c-0.7-0.2-1.4-0.4-2.2-0.4
	c-1.1,0-2.1,0.3-3.1,0.9c-0.9,0.6-1.7,1.5-2.3,2.8s-0.9,2.9-0.9,4.8c0,2.9,0.5,5,1.6,6.4c1.1,1.4,2.6,2.1,4.6,2.1
	c1.5,0,2.9-0.3,4.1-1V264h-3.8l-0.2-1.4h5.6v9.1c-1.8,1-3.7,1.6-5.7,1.6c-2.5,0-4.4-0.9-5.8-2.6c-1.4-1.7-2.1-4.2-2.1-7.4
	c0-2.1,0.4-3.9,1.1-5.4c0.7-1.5,1.7-2.6,3-3.3c1.2-0.7,2.6-1.1,4-1.1C184.5,253.5,185.4,253.6,186.2,253.9"/>
<path class="st2" d="M202.9,264.6c0-1.6-0.3-2.9-1-3.9c-0.7-0.9-1.7-1.4-3.1-1.4c-1.2,0-2.2,0.5-3,1.4c-0.8,0.9-1.2,2.4-1.2,4.3h8.3
	V264.6z M204.5,266.3h-9.8c0.1,1.9,0.5,3.3,1.4,4.3c0.8,0.9,1.9,1.4,3.2,1.4c0.8,0,1.5-0.1,2-0.4c0.6-0.2,1.2-0.6,1.9-1.1l0.8,1
	c-0.7,0.6-1.5,1-2.3,1.3c-0.8,0.3-1.6,0.4-2.6,0.4c-2,0-3.5-0.7-4.6-2c-1.1-1.3-1.7-3.2-1.7-5.5c0-1.6,0.2-2.9,0.7-4.1
	c0.5-1.2,1.2-2.1,2.1-2.7c0.9-0.6,1.9-1,3.1-1c1.9,0,3.3,0.6,4.3,1.9c1,1.3,1.5,3,1.5,5.2C204.5,265.5,204.5,265.9,204.5,266.3"/>
<path class="st2" d="M215.5,258.4c0.7,0.3,1.5,0.7,2.2,1.2l-0.8,1.1c-0.7-0.5-1.3-0.8-1.9-1c-0.6-0.2-1.3-0.3-2-0.3
	c-1,0-1.8,0.2-2.4,0.7c-0.6,0.4-0.9,1-0.9,1.8c0,0.7,0.3,1.3,0.8,1.7c0.5,0.4,1.4,0.8,2.8,1.1c1.7,0.4,2.9,1,3.6,1.6
	c0.7,0.7,1.1,1.6,1.1,2.8c0,1.3-0.5,2.3-1.5,3.1c-1,0.8-2.3,1.1-3.8,1.1c-1.1,0-2.1-0.2-3-0.5c-0.8-0.3-1.6-0.8-2.3-1.4l0.9-1
	c0.7,0.5,1.3,0.9,2,1.2c0.7,0.3,1.5,0.4,2.3,0.4c1.1,0,2-0.2,2.6-0.7c0.7-0.5,1-1.2,1-2.1c0-0.6-0.1-1.1-0.3-1.5
	c-0.2-0.4-0.6-0.7-1.2-1c-0.5-0.3-1.3-0.5-2.4-0.8c-1.6-0.4-2.7-0.9-3.4-1.5c-0.7-0.6-1-1.4-1-2.5c0-0.7,0.2-1.4,0.6-2
	c0.4-0.6,1-1,1.8-1.4c0.7-0.3,1.6-0.5,2.5-0.5C214,258,214.8,258.1,215.5,258.4"/>
<path class="st2" d="M231.6,264.6c0-1.6-0.3-2.9-1-3.9c-0.7-0.9-1.7-1.4-3.1-1.4c-1.2,0-2.2,0.5-3,1.4c-0.8,0.9-1.2,2.4-1.2,4.3h8.3
	V264.6z M233.2,266.3h-9.8c0.1,1.9,0.5,3.3,1.4,4.3c0.8,0.9,1.9,1.4,3.2,1.4c0.8,0,1.5-0.1,2-0.4c0.6-0.2,1.2-0.6,1.9-1.1l0.8,1
	c-0.7,0.6-1.5,1-2.3,1.3s-1.6,0.4-2.6,0.4c-2,0-3.5-0.7-4.6-2c-1.1-1.3-1.7-3.2-1.7-5.5c0-1.6,0.2-2.9,0.7-4.1
	c0.5-1.2,1.2-2.1,2.1-2.7c0.9-0.6,1.9-1,3.1-1c1.9,0,3.3,0.6,4.3,1.9s1.5,3,1.5,5.2C233.2,265.5,233.2,265.9,233.2,266.3"/>
<path class="st2" d="M238.7,272.6c-0.5-0.5-0.7-1.2-0.7-2.1v-18.2l1.6-0.2v18.3c0,1,0.4,1.4,1.2,1.4c0.4,0,0.7-0.1,1-0.2l0.5,1.2
	c-0.5,0.3-1.1,0.4-1.7,0.4C239.8,273.3,239.1,273.1,238.7,272.6"/>
<path class="st2" d="M246.9,272.6c-0.5-0.5-0.7-1.2-0.7-2.1v-18.2l1.6-0.2v18.3c0,1,0.4,1.4,1.2,1.4c0.4,0,0.7-0.1,1-0.2l0.5,1.2
	c-0.5,0.3-1.1,0.4-1.7,0.4C248,273.3,247.4,273.1,246.9,272.6"/>
<path class="st2" d="M260.7,258.4c0.7,0.3,1.5,0.7,2.2,1.2l-0.8,1.1c-0.7-0.5-1.3-0.8-1.9-1c-0.6-0.2-1.3-0.3-2-0.3
	c-1,0-1.8,0.2-2.4,0.7c-0.6,0.4-0.9,1-0.9,1.8c0,0.7,0.3,1.3,0.8,1.7c0.5,0.4,1.4,0.8,2.8,1.1c1.7,0.4,2.9,1,3.6,1.6
	c0.7,0.7,1.1,1.6,1.1,2.8c0,1.3-0.5,2.3-1.5,3.1c-1,0.8-2.3,1.1-3.8,1.1c-1.1,0-2.1-0.2-3-0.5c-0.8-0.3-1.6-0.8-2.3-1.4l0.9-1
	c0.7,0.5,1.3,0.9,2,1.2c0.7,0.3,1.5,0.4,2.3,0.4c1.1,0,2-0.2,2.6-0.7c0.7-0.5,1-1.2,1-2.1c0-0.6-0.1-1.1-0.3-1.5
	c-0.2-0.4-0.6-0.7-1.2-1c-0.5-0.3-1.3-0.5-2.4-0.8c-1.6-0.4-2.7-0.9-3.4-1.5c-0.7-0.6-1-1.4-1-2.5c0-0.7,0.2-1.4,0.6-2
	c0.4-0.6,1-1,1.8-1.4c0.7-0.3,1.6-0.5,2.5-0.5C259.1,258,260,258.1,260.7,258.4"/>
<path class="st2" d="M275.2,258.3c0.7,0.2,1.3,0.6,1.9,1.1l-0.8,1.1c-0.5-0.4-1-0.7-1.5-0.9c-0.5-0.2-1.1-0.3-1.8-0.3
	c-1.4,0-2.5,0.5-3.3,1.6c-0.8,1.1-1.2,2.6-1.2,4.7c0,2,0.4,3.6,1.2,4.6c0.8,1,1.9,1.5,3.3,1.5c0.7,0,1.3-0.1,1.8-0.3
	c0.5-0.2,1.1-0.5,1.6-0.9l0.8,1.1c-1.2,1-2.6,1.6-4.2,1.6c-1.3,0-2.4-0.3-3.3-0.9c-0.9-0.6-1.7-1.5-2.2-2.6
	c-0.5-1.1-0.8-2.5-0.8-4.1c0-1.6,0.3-2.9,0.8-4.1c0.5-1.2,1.2-2.1,2.2-2.7c0.9-0.6,2-1,3.3-1C273.8,258,274.6,258.1,275.2,258.3"/>
<path class="st2" d="M291,259.2c0.7,0.8,1.1,1.9,1.1,3.3V273h-1.6v-10.3c0-2.3-0.9-3.4-2.8-3.4c-0.9,0-1.8,0.3-2.5,0.8
	c-0.7,0.5-1.4,1.3-2.1,2.3V273h-1.6v-20.6l1.6-0.2v8.6c1.3-1.8,2.9-2.7,4.9-2.7C289.2,258,290.3,258.4,291,259.2"/>
<path class="st2" d="M305.7,269.4v-4h-2.6c-1.5,0-2.6,0.3-3.4,0.9c-0.8,0.6-1.2,1.5-1.2,2.6c0,1,0.3,1.8,0.8,2.3
	c0.5,0.5,1.3,0.8,2.3,0.8C303.3,272,304.7,271.1,305.7,269.4 M307.6,271.4c0.2,0.3,0.5,0.6,0.9,0.8l-0.4,1.2
	c-0.7-0.1-1.2-0.4-1.6-0.8c-0.4-0.4-0.6-0.9-0.7-1.7c-1,1.6-2.5,2.5-4.6,2.5c-1.4,0-2.5-0.4-3.3-1.2c-0.8-0.8-1.2-1.9-1.2-3.2
	c0-1.5,0.5-2.7,1.6-3.5c1.1-0.8,2.6-1.2,4.5-1.2h2.8v-1.4c0-1.2-0.3-2-0.8-2.6c-0.5-0.5-1.4-0.8-2.6-0.8c-1.1,0-2.5,0.3-4,0.8
	l-0.4-1.2c1.6-0.7,3.2-1,4.6-1c3.2,0,4.8,1.6,4.8,4.7v7.1C307.3,270.5,307.4,271,307.6,271.4"/>
<path class="st2" d="M315.9,254.1c-0.4,0.4-0.6,1-0.6,1.9v2.4h3.9l-0.2,1.3h-3.7V273h-1.6v-13.4h-2.6v-1.3h2.6v-2.4
	c0-1.2,0.4-2.1,1.1-2.7c0.7-0.7,1.7-1,3-1c1.1,0,2.3,0.3,3.4,0.8l-0.6,1.2c-1-0.4-1.9-0.6-2.8-0.6
	C317,253.5,316.4,253.7,315.9,254.1"/>
<path class="st2" d="M329.5,272.4c-0.9,0.6-2,0.9-3.1,0.9s-2-0.3-2.6-1c-0.6-0.7-1-1.6-1-2.9v-9.8h-2.5v-1.3h2.5v-3.5l1.6-0.2v3.7
	h3.8l-0.2,1.3h-3.6v9.7c0,0.9,0.2,1.5,0.5,1.9c0.4,0.4,0.9,0.6,1.6,0.6c0.7,0,1.5-0.2,2.2-0.6L329.5,272.4z"/>
<path class="st2" d="M343.3,254.1c-0.4,0.4-0.6,1-0.6,1.9v2.4h3.9l-0.2,1.3h-3.7V273H341v-13.4h-2.6v-1.3h2.6v-2.4
	c0-1.2,0.4-2.1,1.1-2.7c0.7-0.7,1.7-1,3-1c1.1,0,2.3,0.3,3.4,0.8l-0.6,1.2c-1-0.4-1.9-0.6-2.8-0.6
	C344.3,253.5,343.7,253.7,343.3,254.1"/>
<path class="st2" d="M358.7,252.5c0.2,0.2,0.3,0.5,0.3,0.8c0,0.3-0.1,0.6-0.3,0.8c-0.2,0.2-0.5,0.3-0.8,0.3c-0.3,0-0.6-0.1-0.8-0.3
	c-0.2-0.2-0.3-0.5-0.3-0.8c0-0.3,0.1-0.6,0.3-0.8c0.2-0.2,0.5-0.3,0.8-0.3C358.2,252.2,358.5,252.3,358.7,252.5 M353.4,252.5
	c0.2,0.2,0.3,0.5,0.3,0.8c0,0.3-0.1,0.6-0.3,0.8c-0.2,0.2-0.5,0.3-0.8,0.3c-0.3,0-0.6-0.1-0.8-0.3c-0.2-0.2-0.3-0.5-0.3-0.8
	c0-0.3,0.1-0.6,0.3-0.8c0.2-0.2,0.5-0.3,0.8-0.3C352.9,252.2,353.1,252.3,353.4,252.5 M360.5,273h-1.4l-0.1-2.6
	c-1.2,1.9-2.8,2.9-4.8,2.9c-1.3,0-2.4-0.4-3.1-1.2c-0.7-0.8-1.1-1.9-1.1-3.3v-10.5h1.6v10.3c0,1.1,0.2,2,0.7,2.5
	c0.5,0.5,1.2,0.8,2.2,0.8c1.7,0,3.1-1,4.3-3v-10.6h1.6V273z"/>
<path class="st2" d="M373.9,258.2l-0.3,1.5c-0.4-0.1-0.8-0.2-1.3-0.2c-1,0-1.8,0.4-2.4,1.1c-0.6,0.7-1.1,1.8-1.5,3.4v9h-1.6v-14.7
	h1.4l0.1,3.3c0.4-1.2,0.9-2.1,1.6-2.7c0.7-0.6,1.5-0.9,2.5-0.9C373,258,373.5,258.1,373.9,258.2"/>
<rect x="385.8" y="253.8" class="st2" width="1.7" height="19.2"/>
<path class="st2" d="M403.4,259.2c0.7,0.8,1.1,1.9,1.1,3.3V273h-1.6v-10.3c0-1.2-0.2-2-0.7-2.6c-0.5-0.5-1.2-0.8-2.1-0.8
	c-0.9,0-1.8,0.3-2.5,0.8c-0.7,0.5-1.4,1.3-2.1,2.3V273h-1.6v-14.7h1.4l0.2,2.5c0.6-0.9,1.3-1.6,2.1-2.1c0.8-0.5,1.8-0.7,2.8-0.7
	C401.7,258,402.7,258.4,403.4,259.2"/>
<path class="st2" d="M413,254.1c-0.4,0.4-0.6,1-0.6,1.9v2.4h3.9l-0.2,1.3h-3.7V273h-1.6v-13.4h-2.6v-1.3h2.6v-2.4
	c0-1.2,0.4-2.1,1.1-2.7c0.7-0.7,1.7-1,3-1c1.1,0,2.3,0.3,3.4,0.8l-0.6,1.2c-1-0.4-1.9-0.6-2.8-0.6C414,253.5,413.4,253.7,413,254.1"
	/>
<path class="st2" d="M421.3,261c-0.8,1.1-1.2,2.6-1.2,4.7c0,2,0.4,3.6,1.2,4.7c0.8,1.1,1.9,1.6,3.3,1.6s2.5-0.5,3.3-1.6
	c0.8-1.1,1.2-2.6,1.2-4.7c0-2-0.4-3.6-1.2-4.6c-0.8-1.1-1.9-1.6-3.3-1.6C423.2,259.4,422.1,259.9,421.3,261 M429.2,260
	c1.1,1.3,1.6,3.2,1.6,5.6c0,2.4-0.6,4.3-1.7,5.6c-1.1,1.4-2.6,2.1-4.6,2.1c-2,0-3.5-0.7-4.6-2c-1.1-1.4-1.6-3.2-1.6-5.6
	c0-1.6,0.3-2.9,0.8-4.1c0.5-1.2,1.2-2,2.2-2.7c0.9-0.6,2-0.9,3.3-0.9C426.6,258,428.1,258.7,429.2,260"/>
<path class="st2" d="M443,258.2l-0.3,1.5c-0.4-0.1-0.8-0.2-1.3-0.2c-1,0-1.8,0.4-2.4,1.1c-0.6,0.7-1.1,1.8-1.5,3.4v9h-1.6v-14.7h1.4
	l0.1,3.3c0.4-1.2,0.9-2.1,1.6-2.7c0.7-0.6,1.5-0.9,2.5-0.9C442.2,258,442.7,258.1,443,258.2"/>
<path class="st2" d="M463.8,259.2c0.7,0.8,1,1.9,1,3.3V273h-1.6v-10.3c0-1.2-0.2-2-0.7-2.6c-0.4-0.6-1.1-0.8-1.8-0.8
	c-0.8,0-1.6,0.3-2.2,0.8c-0.7,0.5-1.3,1.3-1.9,2.2V273h-1.6v-10.3c0-1.2-0.2-2-0.7-2.6c-0.4-0.6-1.1-0.8-1.8-0.8
	c-0.8,0-1.6,0.3-2.2,0.8c-0.7,0.5-1.3,1.3-1.9,2.2V273h-1.6v-14.7h1.4l0.1,2.5c0.6-0.9,1.2-1.6,2-2.1c0.8-0.5,1.6-0.7,2.5-0.7
	c0.9,0,1.7,0.3,2.4,0.8c0.6,0.5,1.1,1.2,1.3,2.1c0.6-0.9,1.3-1.6,2-2.1c0.8-0.5,1.6-0.8,2.6-0.8C462.2,258,463.1,258.4,463.8,259.2"
	/>
<path class="st2" d="M478.4,269.4v-4h-2.6c-1.5,0-2.6,0.3-3.4,0.9c-0.8,0.6-1.2,1.5-1.2,2.6c0,1,0.3,1.8,0.8,2.3
	c0.5,0.5,1.3,0.8,2.3,0.8C476.1,272,477.5,271.1,478.4,269.4 M480.4,271.4c0.2,0.3,0.5,0.6,0.9,0.8l-0.4,1.2
	c-0.7-0.1-1.2-0.4-1.6-0.8c-0.4-0.4-0.6-0.9-0.7-1.7c-1,1.6-2.5,2.5-4.6,2.5c-1.4,0-2.5-0.4-3.3-1.2c-0.8-0.8-1.2-1.9-1.2-3.2
	c0-1.5,0.5-2.7,1.6-3.5c1.1-0.8,2.6-1.2,4.5-1.2h2.8v-1.4c0-1.2-0.3-2-0.8-2.6c-0.5-0.5-1.4-0.8-2.6-0.8c-1.1,0-2.5,0.3-4,0.8
	l-0.4-1.2c1.6-0.7,3.2-1,4.6-1c3.2,0,4.8,1.6,4.8,4.7v7.1C480.1,270.5,480.2,271,480.4,271.4"/>
<path class="st2" d="M493,272.4c-0.9,0.6-2,0.9-3.1,0.9s-2-0.3-2.6-1c-0.6-0.7-1-1.6-1-2.9v-9.8h-2.5v-1.3h2.5v-3.5l1.6-0.2v3.7h3.8
	l-0.2,1.3h-3.6v9.7c0,0.9,0.2,1.5,0.5,1.9c0.4,0.4,0.9,0.6,1.6,0.6c0.7,0,1.5-0.2,2.2-0.6L493,272.4z"/>
<path class="st2" d="M497.8,273h-1.6v-14.7h1.6V273z M497.9,252.2c0.2,0.2,0.3,0.5,0.3,0.8c0,0.3-0.1,0.6-0.3,0.8
	c-0.2,0.2-0.5,0.3-0.9,0.3c-0.4,0-0.6-0.1-0.9-0.3c-0.2-0.2-0.3-0.5-0.3-0.8c0-0.3,0.1-0.6,0.3-0.8c0.2-0.2,0.5-0.3,0.9-0.3
	C497.3,251.9,497.6,252,497.9,252.2"/>
<path class="st2" d="M512,258.3l-6.2,6.7l6.8,8h2l-6.8-8.1l6.2-6.6H512z M504,252.3V273h1.6v-20.8L504,252.3z"/>
</svg>
