<?xml version="1.0" encoding="utf-8"?>
<!-- Generator: Adobe Illustrator 27.9.0, SVG Export Plug-In . SVG Version: 6.00 Build 0)  -->
<svg version="1.1" id="Ebene_1" xmlns="http://www.w3.org/2000/svg" xmlns:xlink="http://www.w3.org/1999/xlink" x="0px" y="0px"
	 viewBox="0 0 164.9 275.6" style="enable-background:new 0 0 164.9 275.6;" xml:space="preserve">
<style type="text/css">
	.st0{fill:#FFFFFF;}
	.st1{fill:#1D1D1B;}
	.st2{fill:#112358;}
</style>
<path class="st2" d="M68.1,32.9c-17.9,0-32.5,14.3-32.5,31.8s14.6,31.8,32.5,31.8s32.5-14.3,32.5-31.8S86,32.9,68.1,32.9
	 M68.1,116.3c-29.1,0-52.7-23.1-52.7-51.6S39,13.1,68.1,13.1c29.1,0,52.7,23.1,52.7,51.6S97.1,116.3,68.1,116.3"/>
<path class="st2" d="M58,228.1l-14.7-13.6c9.3-9.6,14.4-22.1,14.4-35.4c0-24.5-17.5-45-41-50.2c-6.8-1.5-11.6-7.4-11.6-14.2v-6.8
	c40.1,0,72.8,31.9,72.8,71.2C77.9,197.4,70.9,214.8,58,228.1"/>
<path class="st2" d="M133,271.5l-0.2-0.2c-8.5-7.6-50.6-48.5-47.5-101.6c2.2-36.7,24.9-70.8,67.5-101.2l0.9,1.3
	c6,8,4.5,19.1-3.2,25.6c-28.4,23.7-43.6,49-45.1,75.5c-2.6,44.3,41.8,86.7,41.9,86.8l-14.8,13.5C132.7,271.1,132.8,271.3,133,271.5"
	/>
</svg>
